<svg width="102" height="47" viewBox="0 0 102 47" fill="none" xmlns="http://www.w3.org/2000/svg">
<rect width="102" height="47" fill="black"/>
<path d="M50.5802 24.6798V32.8875H47.9583V12.6181H54.9122C55.7422 12.6008 56.5675 12.747 57.3404 13.0482C58.1132 13.3494 58.8184 13.7996 59.4151 14.3728C60.0179 14.9112 60.4976 15.5716 60.822 16.3094C61.1465 17.0472 61.3081 17.8455 61.2961 18.6505C61.3134 19.4599 61.1542 20.2633 60.8295 21.0059C60.5049 21.7484 60.0224 22.4125 59.4151 22.9525C58.1991 24.104 56.6982 24.6792 54.9122 24.6781H50.5802V24.6798ZM50.5802 15.1135V22.1891H54.9773C55.4594 22.2033 55.9391 22.1174 56.3858 21.937C56.8325 21.7565 57.2364 21.4855 57.5716 21.1411C57.905 20.8192 58.1701 20.4341 58.3511 20.0087C58.5321 19.5833 58.6253 19.1261 58.6253 18.6643C58.6253 18.2024 58.5321 17.7453 58.3511 17.3198C58.1701 16.8944 57.905 16.5093 57.5716 16.1874C57.2406 15.8358 56.8381 15.5581 56.3909 15.3727C55.9436 15.1873 55.4618 15.0984 54.9773 15.1119H50.5802V15.1135Z" fill="white"/>
<path d="M67.3379 18.5664C69.2759 18.5664 70.8057 19.0807 71.9272 20.1093C73.0487 21.1379 73.6089 22.5482 73.6079 24.3401V32.8874H71.0999V30.9629H70.9859C69.9002 32.5478 68.4562 33.3403 66.6539 33.3403C65.1155 33.3403 63.8284 32.8874 62.7926 31.9818C62.2956 31.5661 61.8982 31.0455 61.6294 30.4579C61.3606 29.8704 61.2272 29.2307 61.239 28.5855C61.239 27.1504 61.7851 26.0091 62.8773 25.1617C63.9695 24.3142 65.4276 23.8894 67.2516 23.8873C68.8085 23.8873 70.0907 24.1703 71.0983 24.7363V24.1412C71.1012 23.7013 71.0056 23.2663 70.8183 22.8677C70.6309 22.4691 70.3567 22.1168 70.0153 21.8366C69.3219 21.2153 68.4183 20.8764 67.4845 20.8872C66.0199 20.8872 64.8609 21.5007 64.0075 22.7277L61.6982 21.2834C62.9685 19.4721 64.8484 18.5664 67.3379 18.5664ZM63.9456 28.6421C63.9439 28.9735 64.0219 29.3005 64.1732 29.5958C64.3244 29.8912 64.5446 30.1464 64.8153 30.3402C65.3952 30.7932 66.1149 31.0332 66.8526 31.0195C67.959 31.0176 69.0196 30.5803 69.8019 29.8033C70.6705 28.9914 71.1048 28.0388 71.1048 26.9455C70.2872 26.2986 69.1472 25.9752 67.6848 25.9752C66.6197 25.9752 65.7316 26.2302 65.0205 26.7401C64.3023 27.2577 63.9456 27.8868 63.9456 28.6421Z" fill="white"/>
<path d="M88.0044 19.0193L79.2493 39.0008H76.5426L79.7916 32.0093L74.0347 19.0193H76.8846L81.0456 28.9817H81.1026L85.1495 19.0193H88.0044Z" fill="white"/>
<path d="M39.9849 22.9104C39.9859 22.1169 39.9183 21.3248 39.783 20.5427H28.7251V25.0274H35.0585C34.9289 25.7437 34.6546 26.4265 34.2521 27.0347C33.8497 27.6428 33.3273 28.1638 32.7167 28.5661V31.4772H36.4965C38.7097 29.4507 39.9849 26.4539 39.9849 22.9104Z" fill="#4285F4"/>
<path d="M28.725 34.2896C31.8893 34.2896 34.5536 33.2578 36.4965 31.4788L32.7166 28.5677C31.6645 29.276 30.3096 29.6803 28.725 29.6803C25.6666 29.6803 23.0707 27.6329 22.1424 24.8738H18.2485V27.8738C19.2245 29.8024 20.721 31.4237 22.5709 32.5566C24.4209 33.6895 26.5516 34.2895 28.725 34.2896Z" fill="#34A853"/>
<path d="M22.1424 24.8738C21.6517 23.428 21.6517 21.8623 22.1424 20.4166V17.4165H18.2486C17.4276 19.0389 17 20.8295 17 22.6452C17 24.4609 17.4276 26.2515 18.2486 27.8738L22.1424 24.8738Z" fill="#FBBC04"/>
<path d="M28.725 15.61C30.3972 15.5829 32.013 16.2103 33.2231 17.3567L36.5697 14.0332C34.4476 12.0537 31.6362 10.967 28.725 11.0008C26.5516 11.0009 24.4209 11.6009 22.5709 12.7338C20.721 13.8667 19.2245 15.4879 18.2485 17.4165L22.1424 20.4166C23.0707 17.6575 25.6666 15.61 28.725 15.61Z" fill="#EA4335"/>
</svg>
