<svg width="25" height="25" viewBox="0 0 25 25" fill="none" xmlns="http://www.w3.org/2000/svg">
    <path d="M12.9829 12.2142C15.1929 12.2142 16.9829 10.4242 16.9829 8.21423C16.9829 6.00423 15.1929 4.21423 12.9829 4.21423C10.7729 4.21423 8.98291 6.00423 8.98291 8.21423C8.98291 10.4242 10.7729 12.2142 12.9829 12.2142ZM12.9829 6.21423C14.0829 6.21423 14.9829 7.11423 14.9829 8.21423C14.9829 9.31423 14.0829 10.2142 12.9829 10.2142C11.8829 10.2142 10.9829 9.31423 10.9829 8.21423C10.9829 7.11423 11.8829 6.21423 12.9829 6.21423ZM12.9829 13.2142C10.3129 13.2142 4.98291 14.5542 4.98291 17.2142V20.2142H20.9829V17.2142C20.9829 14.5542 15.6529 13.2142 12.9829 13.2142ZM18.9829 18.2142H6.98291V17.2242C7.18291 16.5042 10.2829 15.2142 12.9829 15.2142C15.6829 15.2142 18.7829 16.5042 18.9829 17.2142V18.2142Z"
          fill="#323232"/>
</svg>
