<svg width="25" height="25" viewBox="0 0 25 25" fill="none" xmlns="http://www.w3.org/2000/svg">
    <path d="M16 14.2143H15.21L14.93 13.9443C15.91 12.8043 16.5 11.3243 16.5 9.71429C16.5 6.12429 13.59 3.21429 10 3.21429C6.41 3.21429 3.5 6.12429 3.5 9.71429C3.5 13.3043 6.41 16.2143 10 16.2143C11.61 16.2143 13.09 15.6243 14.23 14.6443L14.5 14.9243V15.7143L19.5 20.7043L20.99 19.2143L16 14.2143ZM10 14.2143C7.51 14.2143 5.5 12.2043 5.5 9.71429C5.5 7.22429 7.51 5.21429 10 5.21429C12.49 5.21429 14.5 7.22429 14.5 9.71429C14.5 12.2043 12.49 14.2143 10 14.2143Z"
          fill="#323232"/>
</svg>
