<svg width="27" height="25" viewBox="0 0 27 25" fill="none" xmlns="http://www.w3.org/2000/svg">
    <path d="M17.4593 13.2143C18.2959 13.2143 19.032 12.8043 19.4112 12.1843L23.4043 5.69429C23.817 5.03429 23.2816 4.21429 22.4339 4.21429H5.92624L4.87778 2.21429H1.23047V4.21429H3.46124L7.47662 11.8043L5.97085 14.2443C5.15662 15.5843 6.22739 17.2143 7.92278 17.2143H21.3074V15.2143H7.92278L9.1497 13.2143H17.4593ZM6.98585 6.21429H20.5378L17.4593 11.2143H9.62932L6.98585 6.21429ZM7.92278 18.2143C6.69585 18.2143 5.70316 19.1143 5.70316 20.2143C5.70316 21.3143 6.69585 22.2143 7.92278 22.2143C9.1497 22.2143 10.1535 21.3143 10.1535 20.2143C10.1535 19.1143 9.1497 18.2143 7.92278 18.2143ZM19.0766 18.2143C17.8497 18.2143 16.857 19.1143 16.857 20.2143C16.857 21.3143 17.8497 22.2143 19.0766 22.2143C20.3035 22.2143 21.3074 21.3143 21.3074 20.2143C21.3074 19.1143 20.3035 18.2143 19.0766 18.2143Z"
          fill="#323232"/>
</svg>
