<svg width="25" height="24" viewBox="0 0 25 24" fill="none" xmlns="http://www.w3.org/2000/svg">
    <path d="M8.25 5.5V4.75L6.75 4.75V5.5L8.25 5.5ZM6.75 19.5V20.25H8.25V19.5H6.75ZM2.96967 8.46967L2.43934 9L3.5 10.0607L4.03033 9.53033L2.96967 8.46967ZM7.5 5L8.03033 4.46967H6.96967L7.5 5ZM10.9697 9.53033L11.5 10.0607L12.5607 9L12.0303 8.46967L10.9697 9.53033ZM6.75 5.5L6.75 19.5H8.25L8.25 5.5L6.75 5.5ZM4.03033 9.53033L8.03033 5.53033L6.96967 4.46967L2.96967 8.46967L4.03033 9.53033ZM6.96967 5.53033L10.9697 9.53033L12.0303 8.46967L8.03033 4.46967L6.96967 5.53033Z"
          fill="#2E2E33"/>
    <path d="M18.25 19V19.75L16.75 19.75V19L18.25 19ZM16.75 5V4.25H18.25V5H16.75ZM12.9697 16.0303L12.4393 15.5L13.5 14.4393L14.0303 14.9697L12.9697 16.0303ZM17.5 19.5L18.0303 20.0303H16.9697L17.5 19.5ZM20.9697 14.9697L21.5 14.4393L22.5607 15.5L22.0303 16.0303L20.9697 14.9697ZM16.75 19L16.75 5H18.25L18.25 19L16.75 19ZM14.0303 14.9697L18.0303 18.9697L16.9697 20.0303L12.9697 16.0303L14.0303 14.9697ZM16.9697 18.9697L20.9697 14.9697L22.0303 16.0303L18.0303 20.0303L16.9697 18.9697Z"
          fill="#2E2E33"/>
</svg>
