<svg width="25" height="25" viewBox="0 0 25 25" fill="none" xmlns="http://www.w3.org/2000/svg">
    <g clip-path="url(#clip0_57_919)">
        <path d="M13 2C8.85357 2 5.5 5.13 5.5 9C5.5 14.25 13 22 13 22C13 22 20.5 14.25 20.5 9C20.5 5.13 17.1464 2 13 2ZM7.64286 9C7.64286 6.24 10.0429 4 13 4C15.9571 4 18.3571 6.24 18.3571 9C18.3571 11.88 15.2714 16.19 13 18.88C10.7714 16.21 7.64286 11.85 7.64286 9Z"
              fill="#323232"/>
        <path d="M12.9999 11.5C14.4792 11.5 15.6784 10.3807 15.6784 9C15.6784 7.61929 14.4792 6.5 12.9999 6.5C11.5205 6.5 10.3213 7.61929 10.3213 9C10.3213 10.3807 11.5205 11.5 12.9999 11.5Z"
              fill="#323232"/>
    </g>
    <defs>
        <clipPath id="clip0_57_919">
            <rect width="25.7143" height="24" fill="white" transform="translate(0.142578)"/>
        </clipPath>
    </defs>
</svg>
