<svg width="164" height="47" viewBox="0 0 164 47" fill="none" xmlns="http://www.w3.org/2000/svg">
<rect width="128" height="47" fill="black"/>
<path d="M65 23.5C65 34.2 56.3 43 45.5 43C34.8 43 26 34.2 26 23.5C26 12.8 34.7 4 45.4 4C56.3 4 65 12.8 65 23.5Z" fill="#F9B50B"/>
<path d="M38.9 23.6C38.9 22.2 38.7 20.8 38.5 19.5H26.5C26.6 18.8 26.8 18.2 27 17.4H37.7C37.5 16.7 37.2 16 36.9 15.3H27.8C28.1 14.6 28.5 14 28.9 13.2H35.8C35.4 12.5 34.9 11.8 34.3 11.1H30.5C31.1 10.4 31.7 9.8 32.5 9.1C29.1 5.9 24.5 4 19.4 4C8.8 4.3 0 12.8 0 23.5C0 34.2 8.7 43 19.5 43C24.6 43 29.1 41 32.6 37.9C33.3 37.3 33.9 36.6 34.6 35.8H30.6C30.1 35.2 29.6 34.5 29.2 33.8H36C36.4 33.2 36.8 32.5 37.1 31.7H28C27.7 31.1 27.4 30.4 27.2 29.6H37.9C38.5 27.8 38.9 25.8 38.9 23.6Z" fill="#C8191C"/>
<path d="M26.3999 28.5L26.6999 26.7C26.5999 26.7 26.3999 26.8 26.1999 26.8C25.4999 26.8 25.3999 26.4 25.4999 26.2L26.0999 22.6H27.1999L27.4999 20.6H26.4999L26.6999 19.4H24.5999C24.5999 19.4 23.3999 26.2 23.3999 27C23.3999 28.2 24.0999 28.8 25.0999 28.8C25.6999 28.8 26.1999 28.6 26.3999 28.5Z" fill="white"/>
<path d="M27.1001 25.2C27.1001 28.1 29.1001 28.8 30.7001 28.8C32.2001 28.8 32.9001 28.5 32.9001 28.5L33.3001 26.5C33.3001 26.5 32.2001 27 31.1001 27C28.8001 27 29.2001 25.3 29.2001 25.3H33.4001C33.4001 25.3 33.7001 24 33.7001 23.4C33.7001 22.1 33.0001 20.4 30.7001 20.4C28.7001 20.3 27.1001 22.6 27.1001 25.2ZM30.7001 22.2C31.8001 22.2 31.6001 23.5 31.6001 23.6H29.3001C29.4001 23.5 29.6001 22.2 30.7001 22.2Z" fill="white"/>
<path d="M43.8001 28.5L44.2001 26.2C44.2001 26.2 43.2001 26.7 42.4001 26.7C41.0001 26.7 40.3001 25.6 40.3001 24.3C40.3001 21.8 41.5001 20.5 43.0001 20.5C44.0001 20.5 44.9001 21.1 44.9001 21.1L45.2001 18.9C45.2001 18.9 44.0001 18.4 42.8001 18.4C40.4001 18.4 38.1001 20.5 38.1001 24.4C38.1001 27 39.3001 28.7 41.8001 28.7C42.7001 28.8 43.8001 28.5 43.8001 28.5Z" fill="white"/>
<path d="M15.1 20.3C13.7 20.3 12.6 20.7001 12.6 20.7001L12.3 22.5C12.3 22.5 13.2 22.1 14.6 22.1C15.3 22.1 15.9 22.2 15.9 22.8C15.9 23.2 15.8 23.3 15.8 23.3H14.9C13.1 23.3 11.2 24 11.2 26.4C11.2 28.3 12.4 28.7001 13.2 28.7001C14.6 28.7001 15.3 27.8 15.4 27.8L15.3 28.6H17L17.8 22.9C17.8 20.4 15.8 20.3 15.1 20.3ZM15.5 24.9C15.5 25.2 15.3 26.9 14.1 26.9C13.5 26.9 13.3 26.4001 13.3 26.1C13.3 25.6 13.6 24.9 15.2 24.9C15.4 24.9 15.5 24.9 15.5 24.9Z" fill="white"/>
<path d="M19.8 28.7C20.3 28.7 22.9 28.8 22.9 26C22.9 23.4 20.4 23.9 20.4 22.9C20.4 22.4 20.8 22.2 21.5 22.2C21.8 22.2 22.9 22.2999 22.9 22.2999L23.2001 20.4C23.2001 20.4 22.5001 20.2 21.2001 20.2C19.7001 20.2 18.1 20.8 18.1 22.9C18.1 25.3 20.7001 25.1 20.7001 26C20.7001 26.6 20 26.7 19.5 26.7C18.6 26.7 17.6 26.4 17.6 26.4L17.3 28.2999C17.5 28.4999 18.1 28.7 19.8 28.7Z" fill="white"/>
<path d="M61.0001 18.7L60.6001 21.5C60.6001 21.5 59.8001 20.5 58.6001 20.5C56.7001 20.5 55.1001 22.8 55.1001 25.5C55.1001 27.2 55.9001 28.9 57.7001 28.9C58.9001 28.9 59.7001 28.1 59.7001 28.1L59.6001 28.8H61.7001L63.2001 18.9L61.0001 18.7ZM60.0001 24.1C60.0001 25.2 59.5001 26.7 58.3001 26.7C57.6001 26.7 57.2001 26.1 57.2001 25C57.2001 23.3 57.9001 22.3 58.9001 22.3C59.6001 22.4 60.0001 22.9 60.0001 24.1Z" fill="white"/>
<path d="M3.80005 28.6L5.00005 21.2L5.20005 28.6H6.60005L9.30005 21.2L8.20005 28.6H10.4L12.1 18.7H8.70005L6.60005 24.8L6.50005 18.7H3.50005L1.80005 28.6H3.80005Z" fill="white"/>
<path d="M35.8 28.6C36.4 25.2 36.5 22.4 38 22.9C38.2 21.6 38.5 21 38.7 20.5H38.3C37.4 20.5 36.6 21.7 36.6 21.7L36.8 20.6H34.8L33.5 28.6H35.8Z" fill="white"/>
<path d="M48.5999 20.3C47.1999 20.3 46.0999 20.7001 46.0999 20.7001L45.7999 22.5C45.7999 22.5 46.6999 22.1 48.0999 22.1C48.7999 22.1 49.4 22.2 49.4 22.8C49.4 23.2 49.2999 23.3 49.2999 23.3H48.4C46.6 23.3 44.7 24 44.7 26.4C44.7 28.3 45.9 28.7001 46.7 28.7001C48.1 28.7001 48.8 27.8 48.9 27.8L48.7999 28.6H50.7L51.5 22.9C51.5 20.4 49.2999 20.3 48.5999 20.3ZM49.0999 24.9C49.0999 25.2 48.9 26.9 47.7 26.9C47.1 26.9 46.9 26.4001 46.9 26.1C46.9 25.6 47.1999 24.9 48.7999 24.9C48.9999 24.9 48.9999 24.9 49.0999 24.9Z" fill="white"/>
<path d="M53.1 28.6C53.7 25.2 53.8 22.4 55.3 22.9C55.5 21.6 55.8 21 56 20.5H55.6C54.7 20.5 53.9001 21.7 53.9001 21.7L54.1 20.6H52.1L50.8 28.6H53.1Z" fill="white"/>
<path d="M81.2129 23.584V23.2412C81.2129 22.6904 81.3857 22.2393 81.7314 21.8877C82.083 21.5361 82.5576 21.3604 83.1553 21.3604C83.7588 21.3604 84.2363 21.5361 84.5879 21.8877C84.9395 22.2393 85.1152 22.6904 85.1152 23.2412V23.584C85.1152 24.1289 84.9395 24.5771 84.5879 24.9287C84.2422 25.2744 83.7676 25.4473 83.1641 25.4473C82.5664 25.4473 82.0918 25.2744 81.7402 24.9287C81.3887 24.5771 81.2129 24.1289 81.2129 23.584ZM88.0059 23.584V23.2412C88.0059 22.6904 88.1787 22.2393 88.5244 21.8877C88.876 21.5361 89.3506 21.3604 89.9482 21.3604C90.5518 21.3604 91.0293 21.5361 91.3809 21.8877C91.7324 22.2393 91.9082 22.6904 91.9082 23.2412V23.584C91.9082 24.1289 91.7324 24.5771 91.3809 24.9287C91.0352 25.2744 90.5605 25.4473 89.957 25.4473C89.3594 25.4473 88.8848 25.2744 88.5332 24.9287C88.1816 24.5771 88.0059 24.1289 88.0059 23.584ZM94.7988 23.584V23.2412C94.7988 22.6904 94.9717 22.2393 95.3174 21.8877C95.6689 21.5361 96.1436 21.3604 96.7412 21.3604C97.3447 21.3604 97.8223 21.5361 98.1738 21.8877C98.5254 22.2393 98.7012 22.6904 98.7012 23.2412V23.584C98.7012 24.1289 98.5254 24.5771 98.1738 24.9287C97.8281 25.2744 97.3535 25.4473 96.75 25.4473C96.1523 25.4473 95.6777 25.2744 95.3262 24.9287C94.9746 24.5771 94.7988 24.1289 94.7988 23.584ZM101.592 23.584V23.2412C101.592 22.6904 101.765 22.2393 102.11 21.8877C102.462 21.5361 102.937 21.3604 103.534 21.3604C104.138 21.3604 104.615 21.5361 104.967 21.8877C105.318 22.2393 105.494 22.6904 105.494 23.2412V23.584C105.494 24.1289 105.318 24.5771 104.967 24.9287C104.621 25.2744 104.146 25.4473 103.543 25.4473C102.945 25.4473 102.471 25.2744 102.119 24.9287C101.768 24.5771 101.592 24.1289 101.592 23.584ZM121.937 25.4385V27.126H112.708L112.638 25.8516L118.157 17.2031H119.854L118.017 20.3496L114.844 25.4385H121.937ZM120.337 17.2031V30H118.219V17.2031H120.337ZM125.557 28.3301H125.732C126.541 28.3301 127.215 28.2246 127.754 28.0137C128.299 27.7969 128.732 27.498 129.055 27.1172C129.377 26.7363 129.608 26.2881 129.749 25.7725C129.89 25.2568 129.96 24.6973 129.96 24.0938V21.8877C129.96 21.3662 129.904 20.9092 129.793 20.5166C129.688 20.1182 129.535 19.7871 129.336 19.5234C129.143 19.2539 128.917 19.0518 128.659 18.917C128.407 18.7822 128.135 18.7148 127.842 18.7148C127.52 18.7148 127.229 18.7881 126.972 18.9346C126.72 19.0752 126.506 19.2715 126.33 19.5234C126.16 19.7695 126.028 20.0596 125.935 20.3936C125.847 20.7217 125.803 21.0732 125.803 21.4482C125.803 21.7998 125.844 22.1396 125.926 22.4678C126.014 22.79 126.143 23.0771 126.312 23.3291C126.482 23.5811 126.696 23.7803 126.954 23.9268C127.212 24.0732 127.514 24.1465 127.859 24.1465C128.188 24.1465 128.489 24.085 128.765 23.9619C129.04 23.833 129.28 23.6602 129.485 23.4434C129.69 23.2266 129.852 22.9834 129.969 22.7139C130.086 22.4443 130.15 22.1689 130.162 21.8877L130.971 22.1338C130.971 22.5791 130.877 23.0186 130.689 23.4521C130.508 23.8799 130.253 24.2725 129.925 24.6299C129.603 24.9814 129.225 25.2627 128.791 25.4736C128.363 25.6846 127.897 25.79 127.394 25.79C126.784 25.79 126.245 25.6758 125.776 25.4473C125.313 25.2129 124.927 24.8965 124.616 24.498C124.312 24.0996 124.083 23.6426 123.931 23.127C123.778 22.6113 123.702 22.0693 123.702 21.501C123.702 20.8857 123.796 20.3086 123.983 19.7695C124.171 19.2305 124.443 18.7559 124.801 18.3457C125.158 17.9297 125.592 17.6074 126.102 17.3789C126.617 17.1445 127.2 17.0273 127.851 17.0273C128.542 17.0273 129.148 17.1621 129.67 17.4316C130.191 17.7012 130.631 18.0732 130.988 18.5479C131.346 19.0225 131.615 19.5732 131.797 20.2002C131.979 20.8271 132.069 21.501 132.069 22.2217V22.9688C132.069 23.7246 132.002 24.4541 131.867 25.1572C131.732 25.8545 131.513 26.502 131.208 27.0996C130.909 27.6914 130.514 28.2129 130.021 28.6641C129.535 29.1094 128.938 29.458 128.229 29.71C127.525 29.9561 126.699 30.0791 125.75 30.0791H125.557V28.3301ZM143.397 25.4385V27.126H134.169L134.099 25.8516L139.618 17.2031H141.314L139.478 20.3496L136.305 25.4385H143.397ZM141.798 17.2031V30H139.68V17.2031H141.798ZM151.096 17.1592V30H148.978V19.6729L145.84 20.7363V18.9873L150.841 17.1592H151.096Z" fill="white"/>
</svg>
